# xmcd CD database file
#
# Track frame offsets:
#	150
#	12715
#	27020
#	39325
#	52587
#	67595
#	80620
#	94207
#	106955
#	120670
#	135177
#	148925
#
# Disc length: 2165 seconds
#
# Revision: 0
# Processed by: cddbd v1.5.1PL0 Copyright (c) Steve Scherf et al.
# Submitted via: CDex 1.51
#
DISCID=9008730c
DTITLE=Bing Crosby - Songs I Wish I Had Sung [The First Time Around]
DYEAR=1989
DGENRE=Jazz
TTITLE0=April Showers
TTITLE1=When my baby smiles at me
TTITLE2=My blue heaven
TTITLE3=A little kiss each morning [A little kiss each tonight]
TTITLE4=Prisoner of love
TTITLE5=Ain't Misbehavin' [I'm savin' my love for you]
TTITLE6=Paper Doll
TTITLE7=This love of mine
TTITLE8=Thanks for the memory
TTITLE9=Blues in the night
TTITLE10=Mona Lisa
TTITLE11=Memories are made of this
EXTD=YEAR: 1989
EXTT0=
EXTT1=
EXTT2=
EXTT3=
EXTT4=
EXTT5=
EXTT6=
EXTT7=
EXTT8=
EXTT9=
EXTT10=
EXTT11=
PLAYORDER=
